<svg xmlns="http://www.w3.org/2000/svg" xmlns:xlink="http://www.w3.org/1999/xlink" width="500" zoomAndPan="magnify" viewBox="0 0 375 374.999991" height="500" preserveAspectRatio="xMidYMid meet" version="1.0"><defs><g/><clipPath id="c131787076"><path d="M 166 6.84375 L 211 6.84375 L 211 49 L 166 49 Z M 166 6.84375 " clip-rule="nonzero"/></clipPath><clipPath id="23cef0bf32"><path d="M 23.335938 245 L 100 245 L 100 314 L 23.335938 314 Z M 23.335938 245 " clip-rule="nonzero"/></clipPath><clipPath id="b8a6159667"><path d="M 73 64 L 304 64 L 304 368.34375 L 73 368.34375 Z M 73 64 " clip-rule="nonzero"/></clipPath></defs><rect x="-37.5" width="450" fill="#ffffff" y="-37.499999" height="449.999989" fill-opacity="1"/><rect x="-37.5" width="450" fill="#000000" y="-37.499999" height="449.999989" fill-opacity="1"/><path fill="#ffffff" d="M 132.5625 27.808594 L 123.121094 16.488281 L 119.882812 30.886719 C 119.785156 31.3125 119.53125 31.597656 119.117188 31.742188 L 105.421875 37.242188 L 118.117188 44.773438 C 118.484375 44.992188 118.683594 45.3125 118.714844 45.738281 L 119.707031 60.464844 L 130.789062 50.71875 C 131.109375 50.429688 131.476562 50.34375 131.890625 50.449219 L 146.203125 54.046875 L 140.390625 40.535156 C 140.21875 40.144531 140.25 39.773438 140.476562 39.414062 L 148.328125 26.910156 L 133.625 28.28125 C 133.183594 28.316406 132.832031 28.15625 132.5625 27.808594 Z M 132.5625 27.808594 " fill-opacity="1" fill-rule="nonzero"/><path fill="#ffffff" d="M 245.609375 50.410156 C 245.914062 50.410156 246.183594 50.511719 246.410156 50.71875 L 257.496094 60.464844 L 258.488281 45.738281 C 258.519531 45.3125 258.71875 44.992188 259.082031 44.773438 L 271.777344 37.242188 L 258.082031 31.742188 C 257.671875 31.597656 257.414062 31.3125 257.320312 30.886719 L 254.078125 16.488281 L 244.660156 27.808594 C 244.386719 28.132812 244.039062 28.28125 243.617188 28.246094 L 228.917969 26.871094 L 236.765625 39.375 C 236.988281 39.730469 237.019531 40.105469 236.855469 40.496094 L 231.003906 54.046875 L 245.320312 50.464844 C 245.414062 50.4375 245.511719 50.417969 245.609375 50.410156 Z M 245.609375 50.410156 " fill-opacity="1" fill-rule="nonzero"/><g clip-path="url(#c131787076)"><path fill="#ffffff" d="M 195.128906 20.164062 L 188.589844 6.925781 L 182.058594 20.164062 C 181.867188 20.542969 181.5625 20.765625 181.140625 20.828125 L 166.539062 22.96875 L 177.109375 33.269531 C 177.414062 33.570312 177.53125 33.925781 177.460938 34.347656 L 174.960938 48.859375 L 188.03125 41.984375 C 188.40625 41.792969 188.78125 41.792969 189.15625 41.984375 L 202.222656 48.859375 L 199.726562 34.347656 C 199.65625 33.925781 199.773438 33.570312 200.078125 33.269531 L 210.648438 22.96875 L 196.042969 20.828125 C 195.621094 20.765625 195.316406 20.542969 195.128906 20.164062 Z M 195.128906 20.164062 " fill-opacity="1" fill-rule="nonzero"/></g><path fill="#ffffff" d="M 351.941406 299.871094 C 330.046875 304.882812 308.015625 308.875 285.855469 311.847656 C 283.695312 293.835938 281.539062 275.828125 279.378906 257.820312 C 300.042969 255.035156 320.613281 251.3125 341.089844 246.648438 C 339.050781 256.402344 336.886719 266.144531 334.59375 275.871094 C 340.246094 283.9375 346.03125 291.9375 351.941406 299.871094 Z M 351.941406 299.871094 " fill-opacity="1" fill-rule="nonzero"/><path fill="#000000" d="M 284.855469 313.136719 L 278.101562 256.835938 L 279.21875 256.699219 C 299.796875 253.933594 320.503906 250.175781 340.78125 245.53125 L 342.523438 245.132812 L 342.15625 246.882812 C 340.195312 256.433594 338.0625 266.101562 335.816406 275.640625 C 341.347656 283.523438 347.078125 291.445312 352.851562 299.191406 L 353.90625 300.597656 L 352.195312 300.992188 C 330.386719 305.988281 308.121094 310.023438 286 312.992188 Z M 280.644531 258.808594 L 286.855469 310.558594 C 307.945312 307.691406 329.164062 303.851562 349.972656 299.144531 C 344.441406 291.691406 338.957031 284.089844 333.65625 276.535156 L 333.359375 276.109375 L 333.480469 275.613281 C 335.617188 266.507812 337.664062 257.28125 339.589844 248.160156 C 320.144531 252.550781 300.335938 256.132812 280.644531 258.808594 Z M 280.644531 258.808594 " fill-opacity="1" fill-rule="nonzero"/><path fill="#ffffff" d="M 309.871094 267.835938 C 305.378906 266.613281 300.746094 265.238281 295.96875 263.710938 C 290.125 261.832031 284.578125 259.890625 279.347656 257.859375 L 281.296875 274.128906 C 286.632812 273.816406 291.90625 273.050781 297.113281 271.839844 C 301.460938 270.8125 305.714844 269.476562 309.871094 267.835938 Z M 309.871094 267.835938 " fill-opacity="1" fill-rule="nonzero"/><path fill="#000000" d="M 280.285156 275.335938 L 277.996094 256.109375 L 279.769531 256.789062 C 285.214844 258.875 290.78125 260.832031 296.335938 262.617188 C 300.917969 264.085938 305.5625 265.46875 310.191406 266.726562 L 313.519531 267.636719 L 310.289062 268.921875 C 300.988281 272.585938 291.347656 274.710938 281.363281 275.289062 Z M 280.707031 259.601562 L 282.273438 272.914062 C 290.445312 272.339844 298.398438 270.699219 306.128906 267.988281 C 302.597656 266.988281 299.0625 265.917969 295.585938 264.804688 C 290.628906 263.199219 285.625 261.449219 280.746094 259.601562 Z M 280.707031 259.601562 " fill-opacity="1" fill-rule="nonzero"/><path fill="#ffffff" d="M 25.304688 299.863281 C 47.203125 304.882812 69.230469 308.875 91.390625 311.839844 C 93.554688 293.839844 95.714844 275.832031 97.867188 257.820312 C 77.203125 255.035156 56.648438 251.308594 36.199219 246.640625 C 38.203125 256.402344 40.355469 266.144531 42.652344 275.871094 C 37 283.925781 31.21875 291.925781 25.304688 299.863281 Z M 25.304688 299.863281 " fill-opacity="1" fill-rule="nonzero"/><g clip-path="url(#23cef0bf32)"><path fill="#000000" d="M 92.390625 313.132812 L 91.238281 312.976562 C 69.085938 310.007812 46.84375 305.972656 25.046875 300.976562 L 23.335938 300.589844 L 24.386719 299.175781 C 30.148438 291.445312 35.847656 283.53125 41.421875 275.632812 C 39.183594 266.109375 37.054688 256.433594 35.074219 246.867188 L 34.714844 245.128906 L 36.457031 245.523438 C 56.730469 250.167969 77.4375 253.925781 98.023438 256.683594 L 99.144531 256.835938 Z M 27.277344 299.136719 C 48.074219 303.851562 69.285156 307.683594 90.390625 310.550781 L 96.601562 258.808594 C 76.902344 256.125 57.097656 252.542969 37.6875 248.152344 C 39.582031 257.316406 41.628906 266.523438 43.796875 275.613281 L 43.917969 276.109375 L 43.621094 276.527344 C 38.28125 284.105469 32.796875 291.699219 27.277344 299.136719 Z M 27.277344 299.136719 " fill-opacity="1" fill-rule="nonzero"/></g><path fill="#ffffff" d="M 67.339844 267.738281 C 71.820312 266.570312 76.464844 265.226562 81.277344 263.703125 C 87.160156 261.839844 92.734375 259.882812 97.898438 257.851562 L 95.953125 274.121094 C 86.0625 273.570312 76.523438 271.441406 67.339844 267.738281 Z M 67.339844 267.738281 " fill-opacity="1" fill-rule="nonzero"/><path fill="#000000" d="M 96.960938 275.328125 L 95.898438 275.269531 C 90.484375 274.960938 85.136719 274.183594 79.859375 272.929688 C 75.425781 271.878906 71.097656 270.5 66.871094 268.796875 L 63.664062 267.507812 L 67.046875 266.628906 C 71.699219 265.414062 76.367188 264.0625 80.933594 262.609375 C 86.480469 260.855469 92.046875 258.890625 97.488281 256.78125 L 99.265625 256.09375 Z M 71.058594 267.925781 C 78.789062 270.691406 86.753906 272.351562 94.945312 272.914062 L 96.539062 259.601562 C 91.621094 261.472656 86.609375 263.214844 81.621094 264.796875 C 78.148438 265.902344 74.601562 266.949219 71.058594 267.925781 Z M 71.058594 267.925781 " fill-opacity="1" fill-rule="nonzero"/><path fill="#000000" d="M 293.835938 94.949219 C 289.710938 93.113281 285.542969 91.386719 281.324219 89.765625 C 277.109375 88.148438 272.851562 86.640625 268.558594 85.246094 C 264.261719 83.851562 259.933594 82.570312 255.574219 81.398438 C 251.210938 80.230469 246.820312 79.175781 242.402344 78.238281 C 237.988281 77.300781 233.546875 76.476562 229.085938 75.769531 C 224.628906 75.0625 220.152344 74.476562 215.660156 74.003906 C 211.167969 73.53125 206.667969 73.175781 202.160156 72.941406 C 197.648438 72.703125 193.136719 72.585938 188.621094 72.585938 C 184.105469 72.585938 179.589844 72.703125 175.082031 72.941406 C 170.570312 73.175781 166.070312 73.53125 161.578125 74.003906 C 157.089844 74.476562 152.613281 75.0625 148.152344 75.769531 C 143.691406 76.476562 139.253906 77.300781 134.835938 78.238281 C 130.417969 79.175781 126.027344 80.230469 121.667969 81.398438 C 117.304688 82.570312 112.976562 83.851562 108.679688 85.246094 C 104.386719 86.640625 100.128906 88.148438 95.914062 89.765625 C 91.699219 91.386719 87.527344 93.113281 83.402344 94.949219 L 81.949219 95.59375 L 81.949219 201.703125 C 81.949219 266.1875 119.5 325.933594 177.613281 353.902344 L 188.621094 359.199219 L 199.632812 353.902344 C 257.738281 325.902344 295.257812 266.15625 295.257812 201.703125 L 295.257812 95.59375 Z M 293.835938 94.949219 " fill-opacity="1" fill-rule="nonzero"/><g clip-path="url(#b8a6159667)"><path fill="#ffffff" d="M 188.621094 368.066406 L 174.105469 361.105469 C 113.261719 331.800781 73.929688 269.21875 73.929688 201.703125 L 73.929688 90.390625 L 80.132812 87.625 C 84.386719 85.730469 88.683594 83.953125 93.03125 82.285156 C 97.378906 80.617188 101.765625 79.0625 106.191406 77.625 C 110.621094 76.1875 115.082031 74.863281 119.578125 73.660156 C 124.074219 72.457031 128.601562 71.371094 133.152344 70.402344 C 137.707031 69.433594 142.28125 68.585938 146.882812 67.859375 C 151.480469 67.128906 156.09375 66.523438 160.722656 66.035156 C 165.351562 65.550781 169.992188 65.183594 174.640625 64.941406 C 179.289062 64.695312 183.941406 64.574219 188.597656 64.574219 C 193.253906 64.574219 197.902344 64.695312 202.554688 64.941406 C 207.203125 65.183594 211.839844 65.550781 216.472656 66.035156 C 221.101562 66.523438 225.714844 67.128906 230.3125 67.859375 C 234.910156 68.585938 239.484375 69.433594 244.039062 70.402344 C 248.59375 71.371094 253.117188 72.457031 257.613281 73.660156 C 262.113281 74.863281 266.574219 76.1875 271 77.625 C 275.429688 79.0625 279.816406 80.617188 284.160156 82.285156 C 288.507812 83.953125 292.808594 85.730469 297.0625 87.625 L 303.277344 90.382812 L 303.277344 201.703125 C 303.277344 269.25 263.949219 331.828125 203.078125 361.128906 Z M 89.972656 100.832031 L 89.972656 201.703125 C 89.972656 263.121094 125.742188 320.035156 181.089844 346.679688 L 188.621094 350.300781 L 196.160156 346.679688 C 251.507812 319.996094 287.269531 263.09375 287.269531 201.703125 L 287.269531 100.878906 C 279.496094 97.550781 271.570312 94.621094 263.5 92.097656 C 255.429688 89.570312 247.253906 87.457031 238.96875 85.761719 C 230.6875 84.0625 222.335938 82.785156 213.925781 81.933594 C 205.511719 81.078125 197.074219 80.652344 188.621094 80.652344 C 180.164062 80.652344 171.726562 81.078125 163.316406 81.933594 C 154.902344 82.785156 146.554688 84.0625 138.269531 85.761719 C 129.984375 87.457031 121.808594 89.570312 113.738281 92.097656 C 105.667969 94.621094 97.746094 97.550781 89.972656 100.878906 Z M 89.972656 100.832031 " fill-opacity="1" fill-rule="nonzero"/></g><path fill="#ffffff" d="M 55.042969 326.757812 C 77.078125 330.753906 99.253906 333.757812 121.5625 335.765625 C 143.867188 337.773438 166.222656 338.777344 188.621094 338.777344 C 211.019531 338.777344 233.371094 337.773438 255.679688 335.765625 C 277.988281 333.757812 300.160156 330.753906 322.199219 326.757812 C 319.085938 307.558594 315.976562 288.363281 312.863281 269.164062 C 292.367188 272.882812 271.742188 275.675781 250.992188 277.542969 C 230.242188 279.410156 209.453125 280.339844 188.621094 280.339844 C 167.785156 280.339844 146.996094 279.410156 126.246094 277.542969 C 105.496094 275.675781 84.875 272.882812 64.375 269.164062 C 61.269531 288.351562 58.15625 307.550781 55.042969 326.757812 Z M 55.042969 326.757812 " fill-opacity="1" fill-rule="nonzero"/><path fill="#000000" d="M 188.621094 339.957031 C 143.664062 339.945312 99.074219 335.921875 54.84375 327.886719 L 53.734375 327.691406 L 63.429688 267.835938 L 64.582031 268.042969 C 85.046875 271.765625 105.636719 274.558594 126.351562 276.425781 C 147.066406 278.296875 167.824219 279.230469 188.625 279.230469 C 209.421875 279.230469 230.179688 278.296875 250.894531 276.425781 C 271.613281 274.558594 292.203125 271.765625 312.664062 268.042969 L 313.8125 267.835938 L 323.519531 327.691406 L 322.414062 327.886719 C 278.175781 335.921875 233.578125 339.945312 188.621094 339.957031 Z M 56.355469 325.832031 C 78.179688 329.769531 100.136719 332.722656 122.222656 334.699219 C 144.3125 336.675781 166.445312 337.664062 188.621094 337.664062 C 210.796875 337.664062 232.929688 336.675781 255.015625 334.699219 C 277.105469 332.722656 299.058594 329.769531 320.882812 325.832031 L 311.925781 270.5 C 291.578125 274.167969 271.109375 276.917969 250.519531 278.757812 C 229.925781 280.597656 209.292969 281.519531 188.621094 281.519531 C 167.945312 281.519531 147.3125 280.597656 126.722656 278.757812 C 106.128906 276.917969 85.660156 274.167969 65.316406 270.5 Z M 56.355469 325.832031 " fill-opacity="1" fill-rule="nonzero"/><path fill="#ffffff" d="M 261.320312 223.960938 L 261.320312 191.230469 L 271.703125 187.808594 L 193.9375 155.660156 L 105.539062 183.15625 L 138.621094 195.84375 L 138.621094 229.453125 C 154.953125 232.882812 171.464844 234.625 188.152344 234.671875 C 205.289062 234.71875 222.242188 232.976562 239.007812 229.453125 L 239.007812 198.578125 L 257.472656 192.46875 L 257.472656 223.929688 C 257.015625 224.121094 256.597656 224.371094 256.214844 224.6875 C 255.835938 225 255.507812 225.363281 255.234375 225.773438 C 254.960938 226.183594 254.753906 226.625 254.609375 227.097656 C 254.464844 227.570312 254.394531 228.054688 254.394531 228.546875 C 254.394531 229.042969 254.464844 229.523438 254.609375 229.996094 C 254.753906 230.46875 254.960938 230.910156 255.234375 231.324219 C 255.507812 231.734375 255.835938 232.09375 256.214844 232.410156 C 256.597656 232.722656 257.015625 232.976562 257.472656 233.164062 L 257.472656 236.222656 L 261.289062 236.222656 L 261.289062 233.164062 C 261.746094 232.976562 262.164062 232.722656 262.546875 232.410156 C 262.925781 232.09375 263.253906 231.734375 263.527344 231.324219 C 263.800781 230.910156 264.007812 230.46875 264.152344 229.996094 C 264.296875 229.523438 264.367188 229.042969 264.367188 228.546875 C 264.367188 228.054688 264.296875 227.570312 264.152344 227.097656 C 264.007812 226.625 263.800781 226.183594 263.527344 225.773438 C 263.253906 225.363281 262.925781 225 262.546875 224.6875 C 262.164062 224.371094 261.746094 224.121094 261.289062 223.929688 Z M 261.320312 223.960938 " fill-opacity="1" fill-rule="nonzero"/><g fill="#000000" fill-opacity="1"><g transform="translate(140.533531, 315.648027)"><g><path d="M 0.46875 -15.40625 L 11.90625 -15.40625 L 12.125 -11.046875 L 11.71875 -11.046875 C 11.101562 -12.523438 10.457031 -13.539062 9.78125 -14.09375 C 9.113281 -14.644531 8.125 -14.921875 6.8125 -14.921875 L 6.046875 -14.921875 L 6.046875 -8.125 L 6.796875 -8.125 C 7.484375 -8.125 8.0625 -8.382812 8.53125 -8.90625 C 9 -9.425781 9.332031 -10.125 9.53125 -11 L 9.859375 -11 L 9.859375 -4.484375 L 9.484375 -4.484375 C 9.222656 -5.585938 8.867188 -6.375 8.421875 -6.84375 C 7.972656 -7.3125 7.359375 -7.546875 6.578125 -7.546875 L 6.046875 -7.546875 L 6.046875 -0.484375 L 6.890625 -0.484375 C 8.234375 -0.484375 9.378906 -0.882812 10.328125 -1.6875 C 11.273438 -2.5 11.925781 -3.535156 12.28125 -4.796875 L 12.71875 -4.796875 L 12.546875 0 L 0.46875 0 L 0.46875 -0.484375 L 1.765625 -0.484375 L 1.765625 -14.921875 L 0.46875 -14.921875 Z M 0.46875 -15.40625 "/></g></g></g><g fill="#000000" fill-opacity="1"><g transform="translate(154.259082, 315.648027)"><g><path d="M 0.46875 -15.40625 L 8.375 -15.40625 L 8.375 -14.921875 L 6.046875 -14.921875 L 6.046875 -0.484375 L 6.84375 -0.484375 C 8.09375 -0.484375 9.085938 -0.863281 9.828125 -1.625 C 10.566406 -2.382812 11.316406 -3.554688 12.078125 -5.140625 L 12.546875 -5.140625 L 12.125 0 L 0.46875 0 L 0.46875 -0.484375 L 1.765625 -0.484375 L 1.765625 -14.921875 L 0.46875 -14.921875 Z M 0.46875 -15.40625 "/></g></g></g><g fill="#000000" fill-opacity="1"><g transform="translate(167.368746, 315.648027)"><g><path d="M 0.46875 -15.40625 L 11.90625 -15.40625 L 12.125 -11.046875 L 11.71875 -11.046875 C 11.101562 -12.523438 10.457031 -13.539062 9.78125 -14.09375 C 9.113281 -14.644531 8.125 -14.921875 6.8125 -14.921875 L 6.046875 -14.921875 L 6.046875 -8.125 L 6.796875 -8.125 C 7.484375 -8.125 8.0625 -8.382812 8.53125 -8.90625 C 9 -9.425781 9.332031 -10.125 9.53125 -11 L 9.859375 -11 L 9.859375 -4.484375 L 9.484375 -4.484375 C 9.222656 -5.585938 8.867188 -6.375 8.421875 -6.84375 C 7.972656 -7.3125 7.359375 -7.546875 6.578125 -7.546875 L 6.046875 -7.546875 L 6.046875 -0.484375 L 6.890625 -0.484375 C 8.234375 -0.484375 9.378906 -0.882812 10.328125 -1.6875 C 11.273438 -2.5 11.925781 -3.535156 12.28125 -4.796875 L 12.71875 -4.796875 L 12.546875 0 L 0.46875 0 L 0.46875 -0.484375 L 1.765625 -0.484375 L 1.765625 -14.921875 L 0.46875 -14.921875 Z M 0.46875 -15.40625 "/></g></g></g><g fill="#000000" fill-opacity="1"><g transform="translate(180.214394, 315.648027)"><g><path d="M 9.453125 -3.984375 L 13.28125 -14.984375 L 11.578125 -14.984375 L 11.578125 -15.40625 L 14.9375 -15.40625 L 14.9375 -14.984375 L 13.90625 -14.984375 L 8.609375 0.21875 L 6.75 0.21875 L 1.140625 -14.984375 L 0.125 -14.984375 L 0.125 -15.40625 L 7.328125 -15.40625 L 7.328125 -14.984375 L 5.765625 -14.984375 Z M 9.453125 -3.984375 "/></g></g></g><g fill="#000000" fill-opacity="1"><g transform="translate(191.982079, 315.648027)"><g><path d="M 9.5 -0.421875 L 7.890625 -5.171875 L 3.546875 -5.171875 L 1.84375 -0.421875 L 3.5 -0.421875 L 3.5 0 L 0.125 0 L 0.125 -0.421875 L 1.171875 -0.421875 L 6.78125 -15.53125 L 8.578125 -15.53125 L 14.125 -0.421875 L 15.140625 -0.421875 L 15.140625 0 L 7.9375 0 L 7.9375 -0.421875 Z M 5.8125 -11.421875 L 3.734375 -5.65625 L 7.71875 -5.65625 Z M 5.8125 -11.421875 "/></g></g></g><g fill="#000000" fill-opacity="1"><g transform="translate(207.247363, 315.648027)"><g><path d="M 7.21875 -7.78125 L 6.046875 -7.78125 L 6.046875 -0.421875 L 7.484375 -0.421875 L 7.484375 0 L 0.328125 0 L 0.328125 -0.421875 L 1.765625 -0.421875 L 1.765625 -14.984375 L 0.328125 -14.984375 L 0.328125 -15.40625 L 6.96875 -15.40625 C 8.875 -15.40625 10.226562 -15.304688 11.03125 -15.109375 C 11.832031 -14.910156 12.394531 -14.671875 12.71875 -14.390625 C 13.414062 -13.816406 13.765625 -12.90625 13.765625 -11.65625 C 13.765625 -10.414062 13.457031 -9.523438 12.84375 -8.984375 C 12.226562 -8.453125 11.289062 -8.132812 10.03125 -8.03125 L 10.03125 -7.96875 C 11.21875 -7.800781 12.046875 -7.445312 12.515625 -6.90625 C 12.984375 -6.363281 13.21875 -5.457031 13.21875 -4.1875 L 13.21875 -3.015625 C 13.21875 -2.253906 13.257812 -1.738281 13.34375 -1.46875 C 13.425781 -1.207031 13.597656 -1.078125 13.859375 -1.078125 C 14.117188 -1.078125 14.328125 -1.195312 14.484375 -1.4375 C 14.640625 -1.675781 14.785156 -2.1875 14.921875 -2.96875 L 15.296875 -2.921875 C 15.128906 -1.679688 14.84375 -0.847656 14.4375 -0.421875 C 14.039062 0.00390625 13.238281 0.21875 12.03125 0.21875 C 10.832031 0.21875 9.976562 -0.0625 9.46875 -0.625 C 8.96875 -1.1875 8.71875 -2.25 8.71875 -3.8125 L 8.71875 -5.40625 C 8.71875 -6.226562 8.609375 -6.828125 8.390625 -7.203125 C 8.179688 -7.585938 7.789062 -7.78125 7.21875 -7.78125 Z M 6.046875 -14.984375 L 6.046875 -8.203125 L 6.75 -8.203125 C 7.59375 -8.203125 8.210938 -8.457031 8.609375 -8.96875 C 9.015625 -9.488281 9.21875 -10.328125 9.21875 -11.484375 L 9.21875 -12.125 C 9.21875 -13.28125 9.019531 -14.046875 8.625 -14.421875 C 8.238281 -14.796875 7.625 -14.984375 6.78125 -14.984375 Z M 6.046875 -14.984375 "/></g></g></g><g fill="#000000" fill-opacity="1"><g transform="translate(222.996561, 315.648027)"><g><path d="M 0.46875 -15.40625 L 11.90625 -15.40625 L 12.125 -11.046875 L 11.71875 -11.046875 C 11.101562 -12.523438 10.457031 -13.539062 9.78125 -14.09375 C 9.113281 -14.644531 8.125 -14.921875 6.8125 -14.921875 L 6.046875 -14.921875 L 6.046875 -8.125 L 6.796875 -8.125 C 7.484375 -8.125 8.0625 -8.382812 8.53125 -8.90625 C 9 -9.425781 9.332031 -10.125 9.53125 -11 L 9.859375 -11 L 9.859375 -4.484375 L 9.484375 -4.484375 C 9.222656 -5.585938 8.867188 -6.375 8.421875 -6.84375 C 7.972656 -7.3125 7.359375 -7.546875 6.578125 -7.546875 L 6.046875 -7.546875 L 6.046875 -0.484375 L 6.890625 -0.484375 C 8.234375 -0.484375 9.378906 -0.882812 10.328125 -1.6875 C 11.273438 -2.5 11.925781 -3.535156 12.28125 -4.796875 L 12.71875 -4.796875 L 12.546875 0 L 0.46875 0 L 0.46875 -0.484375 L 1.765625 -0.484375 L 1.765625 -14.921875 L 0.46875 -14.921875 Z M 0.46875 -15.40625 "/></g></g></g></svg>