<svg xmlns="http://www.w3.org/2000/svg" xmlns:xlink="http://www.w3.org/1999/xlink" width="500" zoomAndPan="magnify" viewBox="0 0 375 374.999991" height="500" preserveAspectRatio="xMidYMid meet" version="1.2"><defs><clipPath id="355a1a0fdd"><path d="M 0 1.898438 L 375 1.898438 L 375 373.148438 L 0 373.148438 Z M 0 1.898438 "/></clipPath><clipPath id="817bb3e7d3"><path d="M 0 0.898438 L 375 0.898438 L 375 372.148438 L 0 372.148438 Z M 0 0.898438 "/></clipPath><clipPath id="bc607e4bef"><rect x="0" width="375" y="0" height="373"/></clipPath></defs><g id="c5d7f41ac3"><rect x="0" width="375" y="0" height="374.999991" style="fill:#ffffff;fill-opacity:1;stroke:none;"/><rect x="0" width="375" y="0" height="374.999991" style="fill:#ffffff;fill-opacity:1;stroke:none;"/><g clip-rule="nonzero" clip-path="url(#355a1a0fdd)"><g transform="matrix(1,0,0,1,0,1)"><g clip-path="url(#bc607e4bef)"><g clip-rule="nonzero" clip-path="url(#817bb3e7d3)"><path style=" stroke:none;fill-rule:evenodd;fill:#000000;fill-opacity:1;" d="M 194.546875 145.296875 L 105.984375 111.269531 L 194.546875 76.785156 L 283.109375 111.261719 Z M 91.828125 259.546875 L 91.828125 218.976562 L 371.628906 111.464844 L 194.546875 42.511719 L 17.464844 111.464844 L 156.105469 164.730469 L 102.046875 185.503906 L -90.03125 111.703125 L 194.546875 0.898438 L 479.125 111.703125 L 145.886719 239.75 L 194.546875 258.445312 L 367.984375 191.800781 L 367.984375 305.476562 L 194.546875 372.121094 L 21.105469 305.476562 L 21.105469 191.800781 L 65.835938 208.988281 L 65.835938 254.953125 L 76.425781 250.347656 Z M 91.828125 259.546875 "/></g></g></g></g><g style="fill:#000000;fill-opacity:1;"><g transform="translate(3.919926, 36.5)"><path style="stroke:none" d="M 14.921875 -17.359375 C 16.410156 -16.347656 17.585938 -15.019531 18.453125 -13.375 C 19.328125 -11.738281 19.671875 -10.015625 19.484375 -8.203125 C 19.296875 -6.597656 18.75 -5.210938 17.84375 -4.046875 C 16.9375 -2.890625 15.820312 -2 14.5 -1.375 C 13.175781 -0.75 11.773438 -0.398438 10.296875 -0.328125 C 8.816406 -0.265625 7.394531 -0.515625 6.03125 -1.078125 C 4.675781 -1.640625 3.53125 -2.535156 2.59375 -3.765625 C 2.113281 -4.398438 1.914062 -5 2 -5.5625 C 2.082031 -6.125 2.328125 -6.617188 2.734375 -7.046875 C 3.148438 -7.472656 3.664062 -7.769531 4.28125 -7.9375 C 4.894531 -8.113281 5.515625 -8.117188 6.140625 -7.953125 C 6.765625 -7.796875 7.304688 -7.410156 7.765625 -6.796875 C 7.972656 -6.503906 8.367188 -6.335938 8.953125 -6.296875 C 9.546875 -6.253906 10.132812 -6.28125 10.71875 -6.375 C 11.300781 -6.46875 11.710938 -6.570312 11.953125 -6.6875 C 12.515625 -6.945312 12.9375 -7.335938 13.21875 -7.859375 C 13.5 -8.378906 13.597656 -8.945312 13.515625 -9.5625 C 13.441406 -10.3125 13.175781 -10.929688 12.71875 -11.421875 C 12.269531 -11.910156 11.726562 -12.328125 11.09375 -12.671875 C 10.46875 -13.023438 9.832031 -13.367188 9.1875 -13.703125 C 8.550781 -14.035156 7.992188 -14.398438 7.515625 -14.796875 C 6.179688 -15.972656 5.367188 -17.253906 5.078125 -18.640625 C 4.785156 -20.023438 4.882812 -21.394531 5.375 -22.75 C 5.875 -24.113281 6.640625 -25.351562 7.671875 -26.46875 C 8.710938 -27.59375 9.898438 -28.476562 11.234375 -29.125 C 11.953125 -29.4375 12.617188 -29.519531 13.234375 -29.375 C 13.847656 -29.226562 14.375 -28.925781 14.8125 -28.46875 C 15.257812 -28.019531 15.5625 -27.503906 15.71875 -26.921875 C 15.875 -26.335938 15.84375 -25.773438 15.625 -25.234375 C 15.414062 -24.703125 14.96875 -24.265625 14.28125 -23.921875 C 13.820312 -23.703125 13.289062 -23.40625 12.6875 -23.03125 C 12.09375 -22.664062 11.601562 -22.222656 11.21875 -21.703125 C 10.832031 -21.179688 10.757812 -20.597656 11 -19.953125 C 11.132812 -19.523438 11.445312 -19.160156 11.9375 -18.859375 C 12.4375 -18.554688 12.960938 -18.285156 13.515625 -18.046875 C 14.078125 -17.804688 14.546875 -17.578125 14.921875 -17.359375 Z M 14.921875 -17.359375 "/></g></g><g style="fill:#000000;fill-opacity:1;"><g transform="translate(25.437793, 36.5)"><path style="stroke:none" d="M 17.796875 -9.6875 C 18.546875 -9.863281 19.191406 -9.828125 19.734375 -9.578125 C 20.285156 -9.328125 20.710938 -8.929688 21.015625 -8.390625 C 21.328125 -7.859375 21.488281 -7.28125 21.5 -6.65625 C 21.507812 -6.03125 21.347656 -5.460938 21.015625 -4.953125 C 20.679688 -4.453125 20.144531 -4.09375 19.40625 -3.875 C 18.039062 -3.5 16.644531 -3.210938 15.21875 -3.015625 C 13.789062 -2.816406 12.375 -2.8125 10.96875 -3 C 9.570312 -3.1875 8.234375 -3.640625 6.953125 -4.359375 C 5.304688 -5.296875 4.046875 -6.585938 3.171875 -8.234375 C 2.304688 -9.890625 1.914062 -11.675781 2 -13.59375 C 2.101562 -15.46875 2.566406 -17.253906 3.390625 -18.953125 C 4.222656 -20.660156 5.328125 -22.175781 6.703125 -23.5 C 8.078125 -24.820312 9.632812 -25.832031 11.375 -26.53125 C 13.125 -27.238281 14.945312 -27.515625 16.84375 -27.359375 C 17.613281 -27.304688 18.234375 -27.054688 18.703125 -26.609375 C 19.171875 -26.171875 19.476562 -25.644531 19.625 -25.03125 C 19.769531 -24.425781 19.769531 -23.828125 19.625 -23.234375 C 19.476562 -22.648438 19.171875 -22.175781 18.703125 -21.8125 C 18.234375 -21.457031 17.613281 -21.304688 16.84375 -21.359375 C 15.457031 -21.460938 14.144531 -21.203125 12.90625 -20.578125 C 11.664062 -19.953125 10.617188 -19.082031 9.765625 -17.96875 C 8.910156 -16.863281 8.363281 -15.617188 8.125 -14.234375 C 7.882812 -13.035156 7.941406 -12.066406 8.296875 -11.328125 C 8.660156 -10.597656 9.203125 -10.050781 9.921875 -9.6875 C 10.640625 -9.332031 11.457031 -9.117188 12.375 -9.046875 C 13.300781 -8.984375 14.234375 -9.007812 15.171875 -9.125 C 16.117188 -9.25 16.992188 -9.4375 17.796875 -9.6875 Z M 17.796875 -9.6875 "/></g></g><path style="fill:none;stroke-width:4;stroke-linecap:butt;stroke-linejoin:miter;stroke:#000000;stroke-opacity:1;stroke-miterlimit:4;" d="M 0.00151587 1.997631 L 87.38173 1.997631 " transform="matrix(0.000000001309,0.75,-0.75,0.000000001309,376.498223,1.901207)"/><path style="fill:none;stroke-width:4;stroke-linecap:butt;stroke-linejoin:miter;stroke:#000000;stroke-opacity:1;stroke-miterlimit:4;" d="M -0.000844901 2.002235 L 79.723119 2.002235 " transform="matrix(0,0.75,-0.75,0,1.49777,313.309227)"/></g></svg>